<?xml version="1.0" encoding="utf-8"?>
<!-- created with bpmn-js / http://bpmn.io -->
<!DOCTYPE svg PUBLIC "-//W3C//DTD SVG 1.1//EN" "http://www.w3.org/Graphics/SVG/1.1/DTD/svg11.dtd">
<svg xmlns="http://www.w3.org/2000/svg" xmlns:xlink="http://www.w3.org/1999/xlink" width="1035" height="693" viewBox="149 76 1035 693" version="1.1"><defs><marker id="sequenceflow-end-white-black-9fowguu2l1ruevcc3orr53b6v" viewBox="0 0 20 20" refX="11" refY="10" markerWidth="10" markerHeight="10" orient="auto"><path d="M 1 5 L 11 10 L 1 15 Z" style="fill: black; stroke-width: 1px; stroke-linecap: round; stroke-dasharray: 10000px, 1px; stroke: black;"/></marker></defs><g class="djs-group"><g class="djs-element djs-connection" data-element-id="Flow_09ul5ql" style="display: block;"><g class="djs-visual"><path d="m  238,339L310,339 " style="fill: none; stroke-width: 2px; stroke: black; stroke-linejoin: round; marker-end: url('#sequenceflow-end-white-black-9fowguu2l1ruevcc3orr53b6v');"/></g><polyline points="238,339 310,339 " style="fill: none; stroke-opacity: 0; stroke: white; stroke-width: 15px;" class="djs-hit djs-hit-stroke"/><rect x="232" y="333" width="84" height="12" style="fill: none;" class="djs-outline"/></g></g><g class="djs-group"><g class="djs-element djs-connection" data-element-id="Flow_0f85l08" style="display: block;"><g class="djs-visual"><path d="m  340,397L340,690 L500,690 " style="fill: none; stroke-width: 2px; stroke: black; stroke-linejoin: round; marker-end: url('#sequenceflow-end-white-black-9fowguu2l1ruevcc3orr53b6v');"/></g><polyline points="340,397 340,690 500,690 " style="fill: none; stroke-opacity: 0; stroke: white; stroke-width: 15px;" class="djs-hit djs-hit-stroke"/><rect x="334" y="391" width="172" height="305" style="fill: none;" class="djs-outline"/></g></g><g class="djs-group"><g class="djs-element djs-connection" data-element-id="Flow_1ys9v5q" style="display: block;"><g class="djs-visual"><path d="m  428,360L510,360 L510,460 " style="fill: none; stroke-width: 2px; stroke: black; stroke-linejoin: round; marker-end: url('#sequenceflow-end-white-black-9fowguu2l1ruevcc3orr53b6v');"/></g><polyline points="428,360 510,360 510,460 " style="fill: none; stroke-opacity: 0; stroke: white; stroke-width: 15px;" class="djs-hit djs-hit-stroke"/><rect x="422" y="354" width="94" height="112" style="fill: none;" class="djs-outline"/></g></g><g class="djs-group"><g class="djs-element djs-connection" data-element-id="Flow_1nkslwq" style="display: block;"><g class="djs-visual"><path d="m  360,299L360,270 L695,270 " style="fill: none; stroke-width: 2px; stroke: black; stroke-linejoin: round; marker-end: url('#sequenceflow-end-white-black-9fowguu2l1ruevcc3orr53b6v');"/></g><polyline points="360,299 360,270 695,270 " style="fill: none; stroke-opacity: 0; stroke: white; stroke-width: 15px;" class="djs-hit djs-hit-stroke"/><rect x="354" y="264" width="347" height="41" style="fill: none;" class="djs-outline"/></g></g><g class="djs-group"><g class="djs-element djs-connection" data-element-id="Flow_05powgp" style="display: block;"><g class="djs-visual"><path d="m  560,500L695,500 " style="fill: none; stroke-width: 2px; stroke: black; stroke-linejoin: round; marker-end: url('#sequenceflow-end-white-black-9fowguu2l1ruevcc3orr53b6v');"/></g><polyline points="560,500 695,500 " style="fill: none; stroke-opacity: 0; stroke: white; stroke-width: 15px;" class="djs-hit djs-hit-stroke"/><rect x="554" y="494" width="147" height="12" style="fill: none;" class="djs-outline"/></g></g><g class="djs-group"><g class="djs-element djs-connection" data-element-id="Flow_0w0mpe6" style="display: block;"><g class="djs-visual"><path d="m  560,558L560,650 " style="fill: none; stroke-width: 2px; stroke: black; stroke-linejoin: round; marker-end: url('#sequenceflow-end-white-black-9fowguu2l1ruevcc3orr53b6v');"/></g><polyline points="560,558 560,650 " style="fill: none; stroke-opacity: 0; stroke: white; stroke-width: 15px;" class="djs-hit djs-hit-stroke"/><rect x="554" y="552" width="12" height="104" style="fill: none;" class="djs-outline"/></g></g><g class="djs-group"><g class="djs-element djs-connection" data-element-id="Flow_0imvjl1" style="display: block;"><g class="djs-visual"><path d="m  520,558L520,650 " style="fill: none; stroke-width: 2px; stroke: black; stroke-linejoin: round; marker-end: url('#sequenceflow-end-white-black-9fowguu2l1ruevcc3orr53b6v');"/></g><polyline points="520,558 520,650 " style="fill: none; stroke-opacity: 0; stroke: white; stroke-width: 15px;" class="djs-hit djs-hit-stroke"/><rect x="514" y="552" width="12" height="104" style="fill: none;" class="djs-outline"/></g></g><g class="djs-group"><g class="djs-element djs-connection" data-element-id="Flow_0vegodh" style="display: block;"><g class="djs-visual"><path d="m  442,500L380,500 L380,379 " style="fill: none; stroke-width: 2px; stroke: black; stroke-linejoin: round; marker-end: url('#sequenceflow-end-white-black-9fowguu2l1ruevcc3orr53b6v');"/></g><polyline points="442,500 380,500 380,379 " style="fill: none; stroke-opacity: 0; stroke: white; stroke-width: 15px;" class="djs-hit djs-hit-stroke"/><rect x="374" y="373" width="74" height="133" style="fill: none;" class="djs-outline"/></g></g><g class="djs-group"><g class="djs-element djs-connection" data-element-id="Flow_1eh8blk" style="display: block;"><g class="djs-visual"><path d="m  720,295L720,475 " style="fill: none; stroke-width: 2px; stroke: black; stroke-linejoin: round; marker-end: url('#sequenceflow-end-white-black-9fowguu2l1ruevcc3orr53b6v');"/></g><polyline points="720,295 720,475 " style="fill: none; stroke-opacity: 0; stroke: white; stroke-width: 15px;" class="djs-hit djs-hit-stroke"/><rect x="714" y="289" width="12" height="192" style="fill: none;" class="djs-outline"/></g></g><g class="djs-group"><g class="djs-element djs-connection" data-element-id="Flow_0gg1wip" style="display: block;"><g class="djs-visual"><path d="m  745,500L940,500 " style="fill: none; stroke-width: 2px; stroke: black; stroke-linejoin: round; marker-end: url('#sequenceflow-end-white-black-9fowguu2l1ruevcc3orr53b6v');"/></g><polyline points="745,500 940,500 " style="fill: none; stroke-opacity: 0; stroke: white; stroke-width: 15px;" class="djs-hit djs-hit-stroke"/><rect x="739" y="494" width="207" height="12" style="fill: none;" class="djs-outline"/></g></g><g class="djs-group"><g class="djs-element djs-connection" data-element-id="Flow_1y9oz3b" style="display: block;"><g class="djs-visual"><path d="m  600,690L720,690 L720,525 " style="fill: none; stroke-width: 2px; stroke: black; stroke-linejoin: round; marker-end: url('#sequenceflow-end-white-black-9fowguu2l1ruevcc3orr53b6v');"/></g><polyline points="600,690 720,690 720,525 " style="fill: none; stroke-opacity: 0; stroke: white; stroke-width: 15px;" class="djs-hit djs-hit-stroke"/><rect x="594" y="519" width="132" height="177" style="fill: none;" class="djs-outline"/></g></g><g class="djs-group"><g class="djs-element djs-connection" data-element-id="Flow_1u78cqv" style="display: block;"><g class="djs-visual"><path d="m  745,270L890,270 " style="fill: none; stroke-width: 2px; stroke: black; stroke-linejoin: round; marker-end: url('#sequenceflow-end-white-black-9fowguu2l1ruevcc3orr53b6v');"/></g><polyline points="745,270 890,270 " style="fill: none; stroke-opacity: 0; stroke: white; stroke-width: 15px;" class="djs-hit djs-hit-stroke"/><rect x="739" y="264" width="157" height="12" style="fill: none;" class="djs-outline"/></g></g><g class="djs-group"><g class="djs-element djs-connection" data-element-id="Flow_0kiedch" style="display: block;"><g class="djs-visual"><path d="m  890,212L890,118 " style="fill: none; stroke-width: 2px; stroke: black; stroke-linejoin: round; marker-end: url('#sequenceflow-end-white-black-9fowguu2l1ruevcc3orr53b6v');"/></g><polyline points="890,212 890,118 " style="fill: none; stroke-opacity: 0; stroke: white; stroke-width: 15px;" class="djs-hit djs-hit-stroke"/><rect x="884" y="112" width="12" height="106" style="fill: none;" class="djs-outline"/></g></g><g class="djs-group"><g class="djs-element djs-connection" data-element-id="Flow_116gme8" style="display: block;"><g class="djs-visual"><path d="m  990,212L990,118 " style="fill: none; stroke-width: 2px; stroke: black; stroke-linejoin: round; marker-end: url('#sequenceflow-end-white-black-9fowguu2l1ruevcc3orr53b6v');"/></g><polyline points="990,212 990,118 " style="fill: none; stroke-opacity: 0; stroke: white; stroke-width: 15px;" class="djs-hit djs-hit-stroke"/><rect x="984" y="112" width="12" height="106" style="fill: none;" class="djs-outline"/></g></g><g class="djs-group"><g class="djs-element djs-connection" data-element-id="Flow_08fg8wj" style="display: block;"><g class="djs-visual"><path d="m  990,270L1142,270 " style="fill: none; stroke-width: 2px; stroke: black; stroke-linejoin: round; marker-end: url('#sequenceflow-end-white-black-9fowguu2l1ruevcc3orr53b6v');"/></g><polyline points="990,270 1142,270 " style="fill: none; stroke-opacity: 0; stroke: white; stroke-width: 15px;" class="djs-hit djs-hit-stroke"/><rect x="984" y="264" width="164" height="12" style="fill: none;" class="djs-outline"/></g></g><g class="djs-group"><g class="djs-element djs-connection" data-element-id="Flow_1lrjd1y" style="display: block;"><g class="djs-visual"><path d="m  990,328L990,460 " style="fill: none; stroke-width: 2px; stroke: black; stroke-linejoin: round; marker-end: url('#sequenceflow-end-white-black-9fowguu2l1ruevcc3orr53b6v');"/></g><polyline points="990,328 990,460 " style="fill: none; stroke-opacity: 0; stroke: white; stroke-width: 15px;" class="djs-hit djs-hit-stroke"/><rect x="984" y="322" width="12" height="144" style="fill: none;" class="djs-outline"/></g></g><g class="djs-group"><g class="djs-element djs-connection" data-element-id="Flow_13ym273" style="display: block;"><g class="djs-visual"><path d="m  1040,500L1142,500 " style="fill: none; stroke-width: 2px; stroke: black; stroke-linejoin: round; marker-end: url('#sequenceflow-end-white-black-9fowguu2l1ruevcc3orr53b6v');"/></g><polyline points="1040,500 1142,500 " style="fill: none; stroke-opacity: 0; stroke: white; stroke-width: 15px;" class="djs-hit djs-hit-stroke"/><rect x="1034" y="494" width="114" height="12" style="fill: none;" class="djs-outline"/></g></g><g class="djs-group"><g class="djs-element djs-connection" data-element-id="Flow_1n5rnyh" style="display: block;"><g class="djs-visual"><path d="m  970,558L970,672 " style="fill: none; stroke-width: 2px; stroke: black; stroke-linejoin: round; marker-end: url('#sequenceflow-end-white-black-9fowguu2l1ruevcc3orr53b6v');"/></g><polyline points="970,558 970,672 " style="fill: none; stroke-opacity: 0; stroke: white; stroke-width: 15px;" class="djs-hit djs-hit-stroke"/><rect x="964" y="552" width="12" height="126" style="fill: none;" class="djs-outline"/></g></g><g class="djs-group"><g class="djs-element djs-connection" data-element-id="Flow_0wa20jl" style="display: block;"><g class="djs-visual"><path d="m  1040,558L1040,672 " style="fill: none; stroke-width: 2px; stroke: black; stroke-linejoin: round; marker-end: url('#sequenceflow-end-white-black-9fowguu2l1ruevcc3orr53b6v');"/></g><polyline points="1040,558 1040,672 " style="fill: none; stroke-opacity: 0; stroke: white; stroke-width: 15px;" class="djs-hit djs-hit-stroke"/><rect x="1034" y="552" width="12" height="126" style="fill: none;" class="djs-outline"/></g></g><g class="djs-group"><g class="djs-element djs-shape" data-element-id="Activity_0hfttvg" transform="matrix(1, 0, 0, 1, 460, 460)" style="display: block;"><g class="djs-visual"><rect x="0" y="0" width="100" height="80" rx="10" ry="10" style="stroke: black; stroke-width: 2px; fill: white; fill-opacity: 0.95;"/><text style="font-family: Arial, sans-serif; font-size: 12px; font-weight: normal; fill: black;" lineHeight="1.2" class="djs-label"><tspan x="50" y="43.599999999999994"/></text></g><rect style="fill: none; stroke-opacity: 0; stroke: white; stroke-width: 15px;" class="djs-hit djs-hit-all" x="0" y="0" width="100" height="80"/><rect x="-6" y="-6" width="112" height="92" style="fill: none;" class="djs-outline"/></g></g><g class="djs-group"><g class="djs-element djs-shape" data-element-id="Activity_06y1b6s" transform="matrix(1, 0, 0, 1, 310, 299)" style="display: block;"><g class="djs-visual"><rect x="0" y="0" width="100" height="80" rx="10" ry="10" style="stroke: black; stroke-width: 2px; fill: white; fill-opacity: 0.95;"/><text style="font-family: Arial, sans-serif; font-size: 12px; font-weight: normal; fill: black;" lineHeight="1.2" class="djs-label"><tspan x="50" y="43.599999999999994"/></text></g><rect style="fill: none; stroke-opacity: 0; stroke: white; stroke-width: 15px;" class="djs-hit djs-hit-all" x="0" y="0" width="100" height="80"/><rect x="-6" y="-6" width="112" height="92" style="fill: none;" class="djs-outline"/></g></g><g class="djs-group"><g class="djs-element djs-shape" data-element-id="Activity_1ra88he" transform="matrix(1, 0, 0, 1, 500, 650)" style="display: block;"><g class="djs-visual"><rect x="0" y="0" width="100" height="80" rx="10" ry="10" style="stroke: black; stroke-width: 2px; fill: white; fill-opacity: 0.95;"/><text style="font-family: Arial, sans-serif; font-size: 12px; font-weight: normal; fill: black;" lineHeight="1.2" class="djs-label"><tspan x="50" y="43.599999999999994"/></text></g><rect style="fill: none; stroke-opacity: 0; stroke: white; stroke-width: 15px;" class="djs-hit djs-hit-all" x="0" y="0" width="100" height="80"/><rect x="-6" y="-6" width="112" height="92" style="fill: none;" class="djs-outline"/></g></g><g class="djs-group"><g class="djs-element djs-shape" data-element-id="StartEvent_1jp6egb" transform="matrix(1, 0, 0, 1, 202, 321)" style="display: block;"><g class="djs-visual"><circle cx="18" cy="18" r="18" style="stroke: black; stroke-width: 2px; fill: white; fill-opacity: 0.95;"/><path d="m 8.459999999999999,11.34 l 0,12.6 l 18.900000000000002,0 l 0,-12.6 z l 9.450000000000001,5.4 l 9.450000000000001,-5.4" style="fill: white; stroke-width: 1px; stroke: black;"/></g><rect style="fill: none; stroke-opacity: 0; stroke: white; stroke-width: 15px;" class="djs-hit djs-hit-all" x="0" y="0" width="36" height="36"/><rect x="-6" y="-6" width="48" height="48" style="fill: none;" class="djs-outline"/></g></g><g class="djs-group"><g class="djs-element djs-shape" data-element-id="Gateway_1day3cu" transform="matrix(1, 0, 0, 1, 695, 475)" style="display: block;"><g class="djs-visual"><polygon points="25,0 50,25 25,50 0,25" style="stroke: black; stroke-width: 2px; fill: white; fill-opacity: 0.95;"/><circle cx="25" cy="25" r="13" style="stroke: black; stroke-width: 2.5px; fill: white;"/></g><rect style="fill: none; stroke-opacity: 0; stroke: white; stroke-width: 15px;" class="djs-hit djs-hit-all" x="0" y="0" width="50" height="50"/><rect x="-6" y="-6" width="62" height="62" style="fill: none;" class="djs-outline"/></g></g><g class="djs-group"><g class="djs-element djs-shape" data-element-id="Gateway_1v4bcfb" transform="matrix(1, 0, 0, 1, 695, 245)" style="display: block;"><g class="djs-visual"><polygon points="25,0 50,25 25,50 0,25" style="stroke: black; stroke-width: 2px; fill: white; fill-opacity: 0.95;"/><path d="m 23,10 0,12.5 -12.5,0 0,5 12.5,0 0,12.5 5,0 0,-12.5 12.5,0 0,-5 -12.5,0 0,-12.5 -5,0 z" style="fill: black; stroke-width: 1px; stroke: black;"/></g><rect style="fill: none; stroke-opacity: 0; stroke: white; stroke-width: 15px;" class="djs-hit djs-hit-all" x="0" y="0" width="50" height="50"/><rect x="-6" y="-6" width="62" height="62" style="fill: none;" class="djs-outline"/></g></g><g class="djs-group"><g class="djs-element djs-shape" data-element-id="Activity_1yrl33n" transform="matrix(1, 0, 0, 1, 890, 230)" style="display: block;"><g class="djs-visual"><rect x="0" y="0" width="100" height="80" rx="10" ry="10" style="stroke: black; stroke-width: 2px; fill: white; fill-opacity: 0.95;"/><text style="font-family: Arial, sans-serif; font-size: 12px; font-weight: normal; fill: black;" lineHeight="1.2" class="djs-label"><tspan x="50" y="43.599999999999994"/></text></g><rect style="fill: none; stroke-opacity: 0; stroke: white; stroke-width: 15px;" class="djs-hit djs-hit-all" x="0" y="0" width="100" height="80"/><rect x="-6" y="-6" width="112" height="92" style="fill: none;" class="djs-outline"/></g></g><g class="djs-group"><g class="djs-element djs-shape" data-element-id="Event_1vsgchz" transform="matrix(1, 0, 0, 1, 872, 82)" style="display: block;"><g class="djs-visual"><circle cx="18" cy="18" r="18" style="stroke: black; stroke-width: 4px; fill: white; fill-opacity: 0.95;"/></g><rect style="fill: none; stroke-opacity: 0; stroke: white; stroke-width: 15px;" class="djs-hit djs-hit-all" x="0" y="0" width="36" height="36"/><rect x="-6" y="-6" width="48" height="48" style="fill: none;" class="djs-outline"/></g></g><g class="djs-group"><g class="djs-element djs-shape" data-element-id="Event_156p7cy" transform="matrix(1, 0, 0, 1, 972, 82)" style="display: block;"><g class="djs-visual"><circle cx="18" cy="18" r="18" style="stroke: black; stroke-width: 4px; fill: white; fill-opacity: 0.95;"/></g><rect style="fill: none; stroke-opacity: 0; stroke: white; stroke-width: 15px;" class="djs-hit djs-hit-all" x="0" y="0" width="36" height="36"/><rect x="-6" y="-6" width="48" height="48" style="fill: none;" class="djs-outline"/></g></g><g class="djs-group"><g class="djs-element djs-shape" data-element-id="Event_0lisivb" transform="matrix(1, 0, 0, 1, 1142, 252)" style="display: block;"><g class="djs-visual"><circle cx="18" cy="18" r="18" style="stroke: black; stroke-width: 4px; fill: white; fill-opacity: 0.95;"/></g><rect style="fill: none; stroke-opacity: 0; stroke: white; stroke-width: 15px;" class="djs-hit djs-hit-all" x="0" y="0" width="36" height="36"/><rect x="-6" y="-6" width="48" height="48" style="fill: none;" class="djs-outline"/></g></g><g class="djs-group"><g class="djs-element djs-shape" data-element-id="Activity_13drwi4" transform="matrix(1, 0, 0, 1, 940, 460)" style="display: block;"><g class="djs-visual"><rect x="0" y="0" width="100" height="80" rx="10" ry="10" style="stroke: black; stroke-width: 2px; fill: white; fill-opacity: 0.95;"/><text style="font-family: Arial, sans-serif; font-size: 12px; font-weight: normal; fill: black;" lineHeight="1.2" class="djs-label"><tspan x="50" y="43.599999999999994"/></text></g><rect style="fill: none; stroke-opacity: 0; stroke: white; stroke-width: 15px;" class="djs-hit djs-hit-all" x="0" y="0" width="100" height="80"/><rect x="-6" y="-6" width="112" height="92" style="fill: none;" class="djs-outline"/></g></g><g class="djs-group"><g class="djs-element djs-shape" data-element-id="Event_1v727e8" transform="matrix(1, 0, 0, 1, 1142, 482)" style="display: block;"><g class="djs-visual"><circle cx="18" cy="18" r="18" style="stroke: black; stroke-width: 4px; fill: white; fill-opacity: 0.95;"/></g><rect style="fill: none; stroke-opacity: 0; stroke: white; stroke-width: 15px;" class="djs-hit djs-hit-all" x="0" y="0" width="36" height="36"/><rect x="-6" y="-6" width="48" height="48" style="fill: none;" class="djs-outline"/></g></g><g class="djs-group"><g class="djs-element djs-shape" data-element-id="Event_0fnl3f3" transform="matrix(1, 0, 0, 1, 952, 672)" style="display: block;"><g class="djs-visual"><circle cx="18" cy="18" r="18" style="stroke: black; stroke-width: 4px; fill: white; fill-opacity: 0.95;"/></g><rect style="fill: none; stroke-opacity: 0; stroke: white; stroke-width: 15px;" class="djs-hit djs-hit-all" x="0" y="0" width="36" height="36"/><rect x="-6" y="-6" width="48" height="48" style="fill: none;" class="djs-outline"/></g></g><g class="djs-group"><g class="djs-element djs-shape" data-element-id="Event_1irc6ch" transform="matrix(1, 0, 0, 1, 1022, 672)" style="display: block;"><g class="djs-visual"><circle cx="18" cy="18" r="18" style="stroke: black; stroke-width: 4px; fill: white; fill-opacity: 0.95;"/></g><rect style="fill: none; stroke-opacity: 0; stroke: white; stroke-width: 15px;" class="djs-hit djs-hit-all" x="0" y="0" width="36" height="36"/><rect x="-6" y="-6" width="48" height="48" style="fill: none;" class="djs-outline"/></g></g><g class="djs-group"><g class="djs-element djs-shape" data-element-id="Event_1os3rln" transform="matrix(1, 0, 0, 1, 542, 522)" style="display: block;"><g class="djs-visual"><circle cx="18" cy="18" r="18" style="stroke: black; stroke-width: 1px; fill: white; fill-opacity: 1;"/><circle cx="18" cy="18" r="15" style="stroke: black; stroke-width: 1px; fill: none;"/><path d="m 8.459999999999999,11.34 l 0,12.6 l 18.900000000000002,0 l 0,-12.6 z l 9.450000000000001,5.4 l 9.450000000000001,-5.4" style="fill: white; stroke-width: 1px; stroke: black;"/></g><rect style="fill: none; stroke-opacity: 0; stroke: white; stroke-width: 15px;" class="djs-hit djs-hit-all" x="0" y="0" width="36" height="36"/><rect x="-6" y="-6" width="48" height="48" style="fill: none;" class="djs-outline"/></g></g><g class="djs-group"><g class="djs-element djs-shape" data-element-id="Event_1uasine" transform="matrix(1, 0, 0, 1, 442, 482)" style="display: block;"><g class="djs-visual"><circle cx="18" cy="18" r="18" style="stroke: black; stroke-width: 1px; fill: white; fill-opacity: 1;"/><circle cx="18" cy="18" r="15" style="stroke: black; stroke-width: 1px; fill: none;"/><path d="m 7.2,25.991999999999997 0.09350000000000001,-0.025300000000000003 7.3392,-9.610700000000001 7.667000000000001,8.9661 4.7003,-18.2204 -5.8707,11.6501 -7.299600000000001,-9.585400000000002 z" style="fill: none; stroke-width: 1px; stroke: black;"/></g><rect style="fill: none; stroke-opacity: 0; stroke: white; stroke-width: 15px;" class="djs-hit djs-hit-all" x="0" y="0" width="36" height="36"/><rect x="-6" y="-6" width="48" height="48" style="fill: none;" class="djs-outline"/></g></g><g class="djs-group"><g class="djs-element djs-shape" data-element-id="Event_1os3rln_label" transform="matrix(1, 0, 0, 1, 582, 516)" style="display: block;"><g class="djs-visual"><text style="font-family: Arial, sans-serif; font-size: 11px; font-weight: normal; fill: black;" lineHeight="1.2" class="djs-label"><tspan x="15.591665267944336" y="9.899999999999999">message </tspan><tspan x="0" y="23.099999999999998">boundary event</tspan></text></g><rect style="fill: none; stroke-opacity: 0; stroke: white; stroke-width: 15px;" class="djs-hit djs-hit-all" x="0" y="0" width="76" height="27"/><rect x="-6" y="-6" width="88" height="39" style="fill: none;" class="djs-outline"/></g></g><g class="djs-group"><g class="djs-element djs-shape" data-element-id="Event_0bvyi04" transform="matrix(1, 0, 0, 1, 502, 522)" style="display: block;"><g class="djs-visual"><circle cx="18" cy="18" r="18" style="stroke: black; stroke-width: 1px; fill: white; fill-opacity: 1;"/><circle cx="18" cy="18" r="15" style="stroke: black; stroke-width: 1px; fill: none;"/><circle cx="18" cy="18" r="11" style="stroke: black; stroke-width: 2px; fill: white;"/><path d="M 18,18 l 2.25,-7.5 m -2.25,7.5 l 5.25,1.5 " style="fill: none; stroke-width: 2px; stroke: black; stroke-linecap: square;"/><path d="M 18,18 m 0,7.5 l -0,2.25 " style="fill: none; stroke-width: 1px; stroke: black; stroke-linecap: square;" transform="rotate(0,18,18)"/><path d="M 18,18 m 0,7.5 l -0,2.25 " style="fill: none; stroke-width: 1px; stroke: black; stroke-linecap: square;" transform="rotate(30,18,18)"/><path d="M 18,18 m 0,7.5 l -0,2.25 " style="fill: none; stroke-width: 1px; stroke: black; stroke-linecap: square;" transform="rotate(60,18,18)"/><path d="M 18,18 m 0,7.5 l -0,2.25 " style="fill: none; stroke-width: 1px; stroke: black; stroke-linecap: square;" transform="rotate(90,18,18)"/><path d="M 18,18 m 0,7.5 l -0,2.25 " style="fill: none; stroke-width: 1px; stroke: black; stroke-linecap: square;" transform="rotate(120,18,18)"/><path d="M 18,18 m 0,7.5 l -0,2.25 " style="fill: none; stroke-width: 1px; stroke: black; stroke-linecap: square;" transform="rotate(150,18,18)"/><path d="M 18,18 m 0,7.5 l -0,2.25 " style="fill: none; stroke-width: 1px; stroke: black; stroke-linecap: square;" transform="rotate(180,18,18)"/><path d="M 18,18 m 0,7.5 l -0,2.25 " style="fill: none; stroke-width: 1px; stroke: black; stroke-linecap: square;" transform="rotate(210,18,18)"/><path d="M 18,18 m 0,7.5 l -0,2.25 " style="fill: none; stroke-width: 1px; stroke: black; stroke-linecap: square;" transform="rotate(240,18,18)"/><path d="M 18,18 m 0,7.5 l -0,2.25 " style="fill: none; stroke-width: 1px; stroke: black; stroke-linecap: square;" transform="rotate(270,18,18)"/><path d="M 18,18 m 0,7.5 l -0,2.25 " style="fill: none; stroke-width: 1px; stroke: black; stroke-linecap: square;" transform="rotate(300,18,18)"/><path d="M 18,18 m 0,7.5 l -0,2.25 " style="fill: none; stroke-width: 1px; stroke: black; stroke-linecap: square;" transform="rotate(330,18,18)"/></g><rect style="fill: none; stroke-opacity: 0; stroke: white; stroke-width: 15px;" class="djs-hit djs-hit-all" x="0" y="0" width="36" height="36"/><rect x="-6" y="-6" width="48" height="48" style="fill: none;" class="djs-outline"/></g></g><g class="djs-group"><g class="djs-element djs-shape" data-element-id="Event_0bvyi04_label" transform="matrix(1, 0, 0, 1, 433, 556)" style="display: block;"><g class="djs-visual"><text style="font-family: Arial, sans-serif; font-size: 11px; font-weight: normal; fill: black;" lineHeight="1.2" class="djs-label"><tspan x="0" y="9.899999999999999">timer boundary </tspan><tspan x="23.2333345413208" y="23.099999999999998">event</tspan></text></g><rect style="fill: none; stroke-opacity: 0; stroke: white; stroke-width: 15px;" class="djs-hit djs-hit-all" x="0" y="0" width="74" height="27"/><rect x="-6" y="-6" width="86" height="39" style="fill: none;" class="djs-outline"/></g></g><g class="djs-group"><g class="djs-element djs-shape" data-element-id="Event_0n1wi4w" transform="matrix(1, 0, 0, 1, 392, 342)" style="display: block;"><g class="djs-visual"><circle cx="18" cy="18" r="18" style="stroke: black; stroke-width: 1px; fill: white; fill-opacity: 1;"/><circle cx="18" cy="18" r="15" style="stroke: black; stroke-width: 1px; fill: none;"/><circle cx="18" cy="18" r="11" style="stroke: black; stroke-width: 2px; fill: white;"/><path d="M 18,18 l 2.25,-7.5 m -2.25,7.5 l 5.25,1.5 " style="fill: none; stroke-width: 2px; stroke: black; stroke-linecap: square;"/><path d="M 18,18 m 0,7.5 l -0,2.25 " style="fill: none; stroke-width: 1px; stroke: black; stroke-linecap: square;" transform="rotate(0,18,18)"/><path d="M 18,18 m 0,7.5 l -0,2.25 " style="fill: none; stroke-width: 1px; stroke: black; stroke-linecap: square;" transform="rotate(30,18,18)"/><path d="M 18,18 m 0,7.5 l -0,2.25 " style="fill: none; stroke-width: 1px; stroke: black; stroke-linecap: square;" transform="rotate(60,18,18)"/><path d="M 18,18 m 0,7.5 l -0,2.25 " style="fill: none; stroke-width: 1px; stroke: black; stroke-linecap: square;" transform="rotate(90,18,18)"/><path d="M 18,18 m 0,7.5 l -0,2.25 " style="fill: none; stroke-width: 1px; stroke: black; stroke-linecap: square;" transform="rotate(120,18,18)"/><path d="M 18,18 m 0,7.5 l -0,2.25 " style="fill: none; stroke-width: 1px; stroke: black; stroke-linecap: square;" transform="rotate(150,18,18)"/><path d="M 18,18 m 0,7.5 l -0,2.25 " style="fill: none; stroke-width: 1px; stroke: black; stroke-linecap: square;" transform="rotate(180,18,18)"/><path d="M 18,18 m 0,7.5 l -0,2.25 " style="fill: none; stroke-width: 1px; stroke: black; stroke-linecap: square;" transform="rotate(210,18,18)"/><path d="M 18,18 m 0,7.5 l -0,2.25 " style="fill: none; stroke-width: 1px; stroke: black; stroke-linecap: square;" transform="rotate(240,18,18)"/><path d="M 18,18 m 0,7.5 l -0,2.25 " style="fill: none; stroke-width: 1px; stroke: black; stroke-linecap: square;" transform="rotate(270,18,18)"/><path d="M 18,18 m 0,7.5 l -0,2.25 " style="fill: none; stroke-width: 1px; stroke: black; stroke-linecap: square;" transform="rotate(300,18,18)"/><path d="M 18,18 m 0,7.5 l -0,2.25 " style="fill: none; stroke-width: 1px; stroke: black; stroke-linecap: square;" transform="rotate(330,18,18)"/></g><rect style="fill: none; stroke-opacity: 0; stroke: white; stroke-width: 15px;" class="djs-hit djs-hit-all" x="0" y="0" width="36" height="36"/><rect x="-6" y="-6" width="48" height="48" style="fill: none;" class="djs-outline"/></g></g><g class="djs-group"><g class="djs-element djs-shape" data-element-id="Event_0ouwso6" transform="matrix(1, 0, 0, 1, 322, 361)" style="display: block;"><g class="djs-visual"><circle cx="18" cy="18" r="18" style="stroke: black; stroke-width: 1px; fill: white; fill-opacity: 1;"/><circle cx="18" cy="18" r="15" style="stroke: black; stroke-width: 1px; fill: none;"/><path d="M 18,7.2 l 8,20 l -8,-7 l -8,7 Z" style="fill: none; stroke-width: 1px; stroke: black;"/></g><rect style="fill: none; stroke-opacity: 0; stroke: white; stroke-width: 15px;" class="djs-hit djs-hit-all" x="0" y="0" width="36" height="36"/><rect x="-6" y="-6" width="48" height="48" style="fill: none;" class="djs-outline"/></g></g><g class="djs-group"><g class="djs-element djs-shape" data-element-id="Event_0n1wi4w_label" transform="matrix(1, 0, 0, 1, 433, 325)" style="display: block;"><g class="djs-visual"><text style="font-family: Arial, sans-serif; font-size: 11px; font-weight: normal; fill: black;" lineHeight="1.2" class="djs-label"><tspan x="0" y="9.899999999999999">timer boundary </tspan><tspan x="23.2333345413208" y="23.099999999999998">event</tspan></text></g><rect style="fill: none; stroke-opacity: 0; stroke: white; stroke-width: 15px;" class="djs-hit djs-hit-all" x="0" y="0" width="74" height="27"/><rect x="-6" y="-6" width="86" height="39" style="fill: none;" class="djs-outline"/></g></g><g class="djs-group"><g class="djs-element djs-shape" data-element-id="Event_1uasine_label" transform="matrix(1, 0, 0, 1, 383, 466)" style="display: block;"><g class="djs-visual"><text style="font-family: Arial, sans-serif; font-size: 11px; font-weight: normal; fill: black;" lineHeight="1.2" class="djs-label"><tspan x="0" y="9.899999999999999">error boundary</tspan><tspan x="22.625000953674316" y="23.099999999999998">event</tspan></text></g><rect style="fill: none; stroke-opacity: 0; stroke: white; stroke-width: 15px;" class="djs-hit djs-hit-all" x="0" y="0" width="73" height="27"/><rect x="-6" y="-6" width="85" height="39" style="fill: none;" class="djs-outline"/></g></g><g class="djs-group"><g class="djs-element djs-shape" data-element-id="Event_0ouwso6_label" transform="matrix(1, 0, 0, 1, 252, 386)" style="display: block;"><g class="djs-visual"><text style="font-family: Arial, sans-serif; font-size: 11px; font-weight: normal; fill: black;" lineHeight="1.2" class="djs-label"><tspan x="13.141666412353516" y="9.899999999999999">escalation </tspan><tspan x="0" y="23.099999999999998">boundary event</tspan></text></g><rect style="fill: none; stroke-opacity: 0; stroke: white; stroke-width: 15px;" class="djs-hit djs-hit-all" x="0" y="0" width="76" height="27"/><rect x="-6" y="-6" width="88" height="39" style="fill: none;" class="djs-outline"/></g></g><g class="djs-group"><g class="djs-element djs-shape" data-element-id="Event_1pygxfb" transform="matrix(1, 0, 0, 1, 482, 712)" style="display: block;"><g class="djs-visual"><circle cx="18" cy="18" r="18" style="stroke: black; stroke-width: 1px; fill: white; fill-opacity: 1;"/><circle cx="18" cy="18" r="15" style="stroke: black; stroke-width: 1px; fill: none;"/><path d="M 18,7.2 l 9,16.2 l -18,0 Z" style="fill: none; stroke-width: 1px; stroke: black;"/></g><rect style="fill: none; stroke-opacity: 0; stroke: white; stroke-width: 15px;" class="djs-hit djs-hit-all" x="0" y="0" width="36" height="36"/><rect x="-6" y="-6" width="48" height="48" style="fill: none;" class="djs-outline"/></g></g><g class="djs-group"><g class="djs-element djs-shape" data-element-id="Event_1pygxfb_label" transform="matrix(1, 0, 0, 1, 391, 726)" style="display: block;"><g class="djs-visual"><text style="font-family: Arial, sans-serif; font-size: 11px; font-weight: normal; fill: black;" lineHeight="1.2" class="djs-label"><tspan x="0" y="9.899999999999999">signal boundary </tspan><tspan x="25.38333225250244" y="23.099999999999998">event</tspan></text></g><rect style="fill: none; stroke-opacity: 0; stroke: white; stroke-width: 15px;" class="djs-hit djs-hit-all" x="0" y="0" width="78" height="27"/><rect x="-6" y="-6" width="90" height="39" style="fill: none;" class="djs-outline"/></g></g><g class="djs-group"><g class="djs-element djs-shape" data-element-id="Event_0zrof1g" transform="matrix(1, 0, 0, 1, 582, 712)" style="display: block;"><g class="djs-visual"><circle cx="18" cy="18" r="18" style="stroke: black; stroke-width: 1px; fill: white; fill-opacity: 1;"/><circle cx="18" cy="18" r="15" style="stroke: black; stroke-width: 1px; fill: none;"/><path d="m 7.92,18 9,-6.5 0,13 z m 9.3,-0.4 8.7,-6.1 0,13 -8.7,-6.1 z" style="fill: none; stroke-width: 1px; stroke: black;"/></g><rect style="fill: none; stroke-opacity: 0; stroke: white; stroke-width: 15px;" class="djs-hit djs-hit-all" x="0" y="0" width="36" height="36"/><rect x="-6" y="-6" width="48" height="48" style="fill: none;" class="djs-outline"/></g></g><g class="djs-group"><g class="djs-element djs-shape" data-element-id="Event_0zrof1g_label" transform="matrix(1, 0, 0, 1, 622, 736)" style="display: block;"><g class="djs-visual"><text style="font-family: Arial, sans-serif; font-size: 11px; font-weight: normal; fill: black;" lineHeight="1.2" class="djs-label"><tspan x="3.666667938232422" y="9.899999999999999">compensation </tspan><tspan x="0" y="23.099999999999998">boundary event</tspan></text></g><rect style="fill: none; stroke-opacity: 0; stroke: white; stroke-width: 15px;" class="djs-hit djs-hit-all" x="0" y="0" width="76" height="27"/><rect x="-6" y="-6" width="88" height="39" style="fill: none;" class="djs-outline"/></g></g><g class="djs-group"><g class="djs-element djs-shape" data-element-id="StartEvent_1jp6egb_label" transform="matrix(1, 0, 0, 1, 155, 306)" style="display: block;"><g class="djs-visual"><text style="font-family: Arial, sans-serif; font-size: 11px; font-weight: normal; fill: black;" lineHeight="1.2" class="djs-label"><tspan x="0" y="9.899999999999999">message start </tspan><tspan x="21.083333015441895" y="23.099999999999998">event</tspan></text></g><rect style="fill: none; stroke-opacity: 0; stroke: white; stroke-width: 15px;" class="djs-hit djs-hit-all" x="0" y="0" width="70" height="27"/><rect x="-6" y="-6" width="82" height="39" style="fill: none;" class="djs-outline"/></g></g><g class="djs-group"><g class="djs-element djs-shape" data-element-id="Event_18mlpi0" transform="matrix(1, 0, 0, 1, 292, 281)" style="display: block;"><g class="djs-visual"><circle cx="18" cy="18" r="18" style="stroke: black; stroke-width: 1px; fill: white; fill-opacity: 1;"/><circle cx="18" cy="18" r="15" style="stroke: black; stroke-width: 1px; fill: none;"/><path d="M 10.5,8.5 l 14.5,0 l 0,18 l -14.5,0 Z M 12.5,11.5 l 10.5,0 M 12.5,14.5 l 10.5,0 M 12.5,17.5 l 10.5,0 M 12.5,20.5 l 10.5,0 M 12.5,23.5 l 10.5,0 M 12.5,26.5 l 10.5,0 " style="fill: none; stroke-width: 1px; stroke: black;"/></g><rect style="fill: none; stroke-opacity: 0; stroke: white; stroke-width: 15px;" class="djs-hit djs-hit-all" x="0" y="0" width="36" height="36"/><rect x="-6" y="-6" width="48" height="48" style="fill: none;" class="djs-outline"/></g></g><g class="djs-group"><g class="djs-element djs-shape" data-element-id="Event_18kwajk_label" transform="matrix(1, 0, 0, 1, 252, 251)" style="display: block;"><g class="djs-visual"><text style="font-family: Arial, sans-serif; font-size: 11px; font-weight: normal; fill: black;" lineHeight="1.2" class="djs-label"><tspan x="11.608333587646484" y="9.899999999999999">conditional </tspan><tspan x="0" y="23.099999999999998">boundary event</tspan></text></g><rect style="fill: none; stroke-opacity: 0; stroke: white; stroke-width: 15px;" class="djs-hit djs-hit-all" x="0" y="0" width="76" height="27"/><rect x="-6" y="-6" width="88" height="39" style="fill: none;" class="djs-outline"/></g></g><g class="djs-group"><g class="djs-element djs-shape" data-element-id="Event_1g3ttb1" transform="matrix(1, 0, 0, 1, 872, 212)" style="display: block;"><g class="djs-visual"><circle cx="18" cy="18" r="18" style="stroke: black; stroke-width: 1px; fill: white; stroke-dasharray: 6px; stroke-linecap: round; fill-opacity: 1;"/><circle cx="18" cy="18" r="15" style="stroke: black; stroke-width: 1px; fill: none; stroke-dasharray: 6px; stroke-linecap: round;"/><path d="m 8.459999999999999,11.34 l 0,12.6 l 18.900000000000002,0 l 0,-12.6 z l 9.450000000000001,5.4 l 9.450000000000001,-5.4" style="fill: white; stroke-width: 1px; stroke: black;"/></g><rect style="fill: none; stroke-opacity: 0; stroke: white; stroke-width: 15px;" class="djs-hit djs-hit-all" x="0" y="0" width="36" height="36"/><rect x="-6" y="-6" width="48" height="48" style="fill: none;" class="djs-outline"/></g></g><g class="djs-group"><g class="djs-element djs-shape" data-element-id="Event_1g3ttb1_label" transform="matrix(1, 0, 0, 1, 787, 200)" style="display: block;"><g class="djs-visual"><text style="font-family: Arial, sans-serif; font-size: 11px; font-weight: normal; fill: black;" lineHeight="1.2" class="djs-label"><tspan x="19.874998092651367" y="9.899999999999999">message </tspan><tspan x="4.283332824707031" y="23.099999999999998">boundary event</tspan><tspan x="0" y="36.3">(non-interrupting)</tspan></text></g><rect style="fill: none; stroke-opacity: 0; stroke: white; stroke-width: 15px;" class="djs-hit djs-hit-all" x="0" y="0" width="85" height="40"/><rect x="-6" y="-6" width="97" height="52" style="fill: none;" class="djs-outline"/></g></g><g class="djs-group"><g class="djs-element djs-shape" data-element-id="Event_0ua9gs9" transform="matrix(1, 0, 0, 1, 972, 212)" style="display: block;"><g class="djs-visual"><circle cx="18" cy="18" r="18" style="stroke: black; stroke-width: 1px; fill: white; stroke-dasharray: 6px; stroke-linecap: round; fill-opacity: 1;"/><circle cx="18" cy="18" r="15" style="stroke: black; stroke-width: 1px; fill: none; stroke-dasharray: 6px; stroke-linecap: round;"/><circle cx="18" cy="18" r="11" style="stroke: black; stroke-width: 2px; fill: white;"/><path d="M 18,18 l 2.25,-7.5 m -2.25,7.5 l 5.25,1.5 " style="fill: none; stroke-width: 2px; stroke: black; stroke-linecap: square;"/><path d="M 18,18 m 0,7.5 l -0,2.25 " style="fill: none; stroke-width: 1px; stroke: black; stroke-linecap: square;" transform="rotate(0,18,18)"/><path d="M 18,18 m 0,7.5 l -0,2.25 " style="fill: none; stroke-width: 1px; stroke: black; stroke-linecap: square;" transform="rotate(30,18,18)"/><path d="M 18,18 m 0,7.5 l -0,2.25 " style="fill: none; stroke-width: 1px; stroke: black; stroke-linecap: square;" transform="rotate(60,18,18)"/><path d="M 18,18 m 0,7.5 l -0,2.25 " style="fill: none; stroke-width: 1px; stroke: black; stroke-linecap: square;" transform="rotate(90,18,18)"/><path d="M 18,18 m 0,7.5 l -0,2.25 " style="fill: none; stroke-width: 1px; stroke: black; stroke-linecap: square;" transform="rotate(120,18,18)"/><path d="M 18,18 m 0,7.5 l -0,2.25 " style="fill: none; stroke-width: 1px; stroke: black; stroke-linecap: square;" transform="rotate(150,18,18)"/><path d="M 18,18 m 0,7.5 l -0,2.25 " style="fill: none; stroke-width: 1px; stroke: black; stroke-linecap: square;" transform="rotate(180,18,18)"/><path d="M 18,18 m 0,7.5 l -0,2.25 " style="fill: none; stroke-width: 1px; stroke: black; stroke-linecap: square;" transform="rotate(210,18,18)"/><path d="M 18,18 m 0,7.5 l -0,2.25 " style="fill: none; stroke-width: 1px; stroke: black; stroke-linecap: square;" transform="rotate(240,18,18)"/><path d="M 18,18 m 0,7.5 l -0,2.25 " style="fill: none; stroke-width: 1px; stroke: black; stroke-linecap: square;" transform="rotate(270,18,18)"/><path d="M 18,18 m 0,7.5 l -0,2.25 " style="fill: none; stroke-width: 1px; stroke: black; stroke-linecap: square;" transform="rotate(300,18,18)"/><path d="M 18,18 m 0,7.5 l -0,2.25 " style="fill: none; stroke-width: 1px; stroke: black; stroke-linecap: square;" transform="rotate(330,18,18)"/></g><rect style="fill: none; stroke-opacity: 0; stroke: white; stroke-width: 15px;" class="djs-hit djs-hit-all" x="0" y="0" width="36" height="36"/><rect x="-6" y="-6" width="48" height="48" style="fill: none;" class="djs-outline"/></g></g><g class="djs-group"><g class="djs-element djs-shape" data-element-id="Event_0ua9gs9_label" transform="matrix(1, 0, 0, 1, 1007, 180)" style="display: block;"><g class="djs-visual"><text style="font-family: Arial, sans-serif; font-size: 11px; font-weight: normal; fill: black;" lineHeight="1.2" class="djs-label"><tspan x="5.508331298828125" y="9.899999999999999">timer boundary </tspan><tspan x="28.741665840148926" y="23.099999999999998">event</tspan><tspan x="0" y="36.3">(non-interrupting)</tspan></text></g><rect style="fill: none; stroke-opacity: 0; stroke: white; stroke-width: 15px;" class="djs-hit djs-hit-all" x="0" y="0" width="85" height="40"/><rect x="-6" y="-6" width="97" height="52" style="fill: none;" class="djs-outline"/></g></g><g class="djs-group"><g class="djs-element djs-shape" data-element-id="Event_0npcjuq" transform="matrix(1, 0, 0, 1, 972, 292)" style="display: block;"><g class="djs-visual"><circle cx="18" cy="18" r="18" style="stroke: black; stroke-width: 1px; fill: white; stroke-dasharray: 6px; stroke-linecap: round; fill-opacity: 1;"/><circle cx="18" cy="18" r="15" style="stroke: black; stroke-width: 1px; fill: none; stroke-dasharray: 6px; stroke-linecap: round;"/><path d="M 18,7.2 l 9,16.2 l -18,0 Z" style="fill: none; stroke-width: 1px; stroke: black;"/></g><rect style="fill: none; stroke-opacity: 0; stroke: white; stroke-width: 15px;" class="djs-hit djs-hit-all" x="0" y="0" width="36" height="36"/><rect x="-6" y="-6" width="48" height="48" style="fill: none;" class="djs-outline"/></g></g><g class="djs-group"><g class="djs-element djs-shape" data-element-id="Event_0npcjuq_label" transform="matrix(1, 0, 0, 1, 1017, 310)" style="display: block;"><g class="djs-visual"><text style="font-family: Arial, sans-serif; font-size: 11px; font-weight: normal; fill: black;" lineHeight="1.2" class="djs-label"><tspan x="3.3583335876464844" y="9.899999999999999">signal boundary </tspan><tspan x="28.741665840148926" y="23.099999999999998">event</tspan><tspan x="0" y="36.3">(non-interrupting)</tspan></text></g><rect style="fill: none; stroke-opacity: 0; stroke: white; stroke-width: 15px;" class="djs-hit djs-hit-all" x="0" y="0" width="85" height="40"/><rect x="-6" y="-6" width="97" height="52" style="fill: none;" class="djs-outline"/></g></g><g class="djs-group"><g class="djs-element djs-shape" data-element-id="Event_1cmnt67" transform="matrix(1, 0, 0, 1, 952, 522)" style="display: block;"><g class="djs-visual"><circle cx="18" cy="18" r="18" style="stroke: black; stroke-width: 1px; fill: white; stroke-dasharray: 6px; stroke-linecap: round; fill-opacity: 1;"/><circle cx="18" cy="18" r="15" style="stroke: black; stroke-width: 1px; fill: none; stroke-dasharray: 6px; stroke-linecap: round;"/><path d="M 18,7.2 l 8,20 l -8,-7 l -8,7 Z" style="fill: none; stroke-width: 1px; stroke: black;"/></g><rect style="fill: none; stroke-opacity: 0; stroke: white; stroke-width: 15px;" class="djs-hit djs-hit-all" x="0" y="0" width="36" height="36"/><rect x="-6" y="-6" width="48" height="48" style="fill: none;" class="djs-outline"/></g></g><g class="djs-group"><g class="djs-element djs-shape" data-element-id="Event_1cmnt67_label" transform="matrix(1, 0, 0, 1, 877, 550)" style="display: block;"><g class="djs-visual"><text style="font-family: Arial, sans-serif; font-size: 11px; font-weight: normal; fill: black;" lineHeight="1.2" class="djs-label"><tspan x="17.424999237060547" y="9.899999999999999">escalation </tspan><tspan x="4.283332824707031" y="23.099999999999998">boundary event</tspan><tspan x="0" y="36.3">(non-interrupting)</tspan></text></g><rect style="fill: none; stroke-opacity: 0; stroke: white; stroke-width: 15px;" class="djs-hit djs-hit-all" x="0" y="0" width="85" height="40"/><rect x="-6" y="-6" width="97" height="52" style="fill: none;" class="djs-outline"/></g></g><g class="djs-group"><g class="djs-element djs-shape" data-element-id="Event_0h54i45" transform="matrix(1, 0, 0, 1, 1022, 522)" style="display: block;"><g class="djs-visual"><circle cx="18" cy="18" r="18" style="stroke: black; stroke-width: 1px; fill: white; stroke-dasharray: 6px; stroke-linecap: round; fill-opacity: 1;"/><circle cx="18" cy="18" r="15" style="stroke: black; stroke-width: 1px; fill: none; stroke-dasharray: 6px; stroke-linecap: round;"/><path d="M 10.5,8.5 l 14.5,0 l 0,18 l -14.5,0 Z M 12.5,11.5 l 10.5,0 M 12.5,14.5 l 10.5,0 M 12.5,17.5 l 10.5,0 M 12.5,20.5 l 10.5,0 M 12.5,23.5 l 10.5,0 M 12.5,26.5 l 10.5,0 " style="fill: none; stroke-width: 1px; stroke: black;"/></g><rect style="fill: none; stroke-opacity: 0; stroke: white; stroke-width: 15px;" class="djs-hit djs-hit-all" x="0" y="0" width="36" height="36"/><rect x="-6" y="-6" width="48" height="48" style="fill: none;" class="djs-outline"/></g></g><g class="djs-group"><g class="djs-element djs-shape" data-element-id="Event_0h54i45_label" transform="matrix(1, 0, 0, 1, 1057, 550)" style="display: block;"><g class="djs-visual"><text style="font-family: Arial, sans-serif; font-size: 11px; font-weight: normal; fill: black;" lineHeight="1.2" class="djs-label"><tspan x="15.891666412353516" y="9.899999999999999">conditional </tspan><tspan x="4.283332824707031" y="23.099999999999998">boundary event</tspan><tspan x="0" y="36.3">(non-interrupting)</tspan></text></g><rect style="fill: none; stroke-opacity: 0; stroke: white; stroke-width: 15px;" class="djs-hit djs-hit-all" x="0" y="0" width="85" height="40"/><rect x="-6" y="-6" width="97" height="52" style="fill: none;" class="djs-outline"/></g></g></svg>